# xmcd
#
# Track frame offsets: 
#        150
#        10826
#        21887
#        33030
#        44032
#        59563
#        73457
#        87392
#        103162
#        111606
#        119976
#        128333
#        137030
#        145323
#        157444
#        171480
#        185328
#        199703
#        213613
#        227020
#        240785
#        254255
#        266884
#        279682
#        292482
#        305349
#
# Disc length: 4211 seconds
#
# Revision: 0
# Processed by: cddbd v1.5.2PL0 Copyright (c) Steve Scherf et al.
# Submitted via: ExactAudioCopy v0.95b3
#
DISCID=a810711a
DTITLE=Jimi Hendrix  - Moonbeams and Fairytales - Disc 20
DYEAR=1900
DGENRE=
TTITLE0=Little Wing
TTITLE1=Little Wing
TTITLE2=Little Wing
TTITLE3=Little Wing
TTITLE4=Little Wing
TTITLE5=Wait Until Tomorrow
TTITLE6=Wait Until Tomorrow
TTITLE7=Wait Until Tomorrow
TTITLE8=Ain't No Telling
TTITLE9=Ain't No Telling
TTITLE10=Ain't No Telling
TTITLE11=Ain't No Telling
TTITLE12=Ain't No Telling
TTITLE13=Spanish Castle Magic
TTITLE14=Spanish Castle Magic
TTITLE15=Spanish Castle Magic
TTITLE16=Spanish Castle Magic
TTITLE17=Up from the Skies
TTITLE18=Up from the Skies
TTITLE19=Up from the Skies
TTITLE20=Up from the Skies
TTITLE21=Castles Made of Sand
TTITLE22=Castles Made of Sand
TTITLE23=Castles Made of Sand
TTITLE24=Castles Made of Sand
TTITLE25=Castles Made of Sand
EXTD=
EXTT0=
EXTT1=
EXTT2=
EXTT3=
EXTT4=
EXTT5=
EXTT6=
EXTT7=
EXTT8=
EXTT9=
EXTT10=
EXTT11=
EXTT12=
EXTT13=
EXTT14=
EXTT15=
EXTT16=
EXTT17=
EXTT18=
EXTT19=
EXTT20=
EXTT21=
EXTT22=
EXTT23=
EXTT24=
EXTT25=
PLAYORDER=
